PathFileType	4	(X/Y/Z)	/home/skhan/TracX/Projects/SHARESPACE/EXERCISES/pose-3d/online_20250326-113730_310-350.trc
DataRate	CameraRate	NumFrames	NumMarkers	Units	OrigDataRate	OrigDataStartFrame	OrigNumFrames
30	30	4	37	m	30	300	1200
Frame#	Time	Hip			RHip			RKnee			RAnkle			RBigToe			RSmallToe			RHeel			LHip			LKnee			LAnkle			LBigToe			LSmallToe			LHeel			Spine_01			Spine_02			Spine_03			Spine_04			Spine_05			LLatissimus			RLatissimus			RClavicle			RShoulder			RElbow			RWrist			LClavicle			LShoulder			LElbow			LWrist			Neck			Neck_02			Neck_03			Head			Nose			LEye			LEar			REye			REar		
		X1	Y1	Z1	X2	Y2	Z2	X3	Y3	Z3	X4	Y4	Z4	X5	Y5	Z5	X6	Y6	Z6	X7	Y7	Z7	X8	Y8	Z8	X9	Y9	Z9	X10	Y10	Z10	X11	Y11	Z11	X12	Y12	Z12	X13	Y13	Z13	X14	Y14	Z14	X15	Y15	Z15	X16	Y16	Z16	X17	Y17	Z17	X18	Y18	Z18	X19	Y19	Z19	X20	Y20	Z20	X21	Y21	Z21	X22	Y22	Z22	X23	Y23	Z23	X24	Y24	Z24	X25	Y25	Z25	X26	Y26	Z26	X27	Y27	Z27	X28	Y28	Z28	X29	Y29	Z29	X30	Y30	Z30	X31	Y31	Z31	X32	Y32	Z32	X33	Y33	Z33	X34	Y34	Z34	X35	Y35	Z35	X36	Y36	Z36	X37	Y37	Z37
300	10.0	-0.07786757266474806	-0.5125173488478584	0.0331678075416414	-0.05370480421226051	-0.48021962486998093	-0.06642282773037181	0.39122183392555104	-0.6180257188294065	-0.15612319495698268	0.6650483901201729	-0.9157401658467027	-0.12646411242366443	0.8413372409576078	-0.912920967010701	-0.14267867482871835	0.7936004232126793	-0.8890687554622074	-0.1659543433257828	0.6957159901664913	-0.9189059484477697	-0.053962450146681454	0.05972494058860581	-0.46314523685832243	0.14044667069321493	0.40935249503287297	-0.6541126892044771	0.01890007790285193	0.6995477149747423	-0.9541321011189766	-0.05051988244308385	0.8698975356428937	-0.9312612046697782	-0.15436513746741182	0.8725242474632554	-0.911121620827305	-0.09368421834404135	0.7103980735184928	-0.9515820222735633	-0.02194374720644135	-0.11400874491799023	-0.4652043120143898	0.05745039577472717	-0.16792194293752802	-0.3915911806425727	0.1070600381393645	-0.23380035713681158	-0.2957454046170235	0.16728115447240088	-0.30372558421700635	-0.2024822238648871	0.2386984293258282	-0.3701784161282722	-0.10498355574630117	0.3204448302404732	-0.12903413563128344	-0.28552674523464033	0.24793860018734876	-0.3583382930879067	-0.318514960726594	0.07260026036764412	-0.37045872942683844	-0.12668307516001256	0.28290193740794994	-0.5496147938113468	-0.10695095913041468	0.1918746614011168	-0.5724338206123104	-0.1344252689226644	-0.08883382018385144	-0.4294357282765557	0.03709441766826636	-0.2383280916706685	-0.33891635040173496	-0.12983696883717327	0.3050443117864266	-0.19845732474598402	-0.12262499969820487	0.4333827939139199	0.008392223753784336	-0.24264445283932923	0.0963120787555927	-0.08536049649439799	-0.19653292814270507	-0.21787039591049612	-0.4200693205944344	-0.03144445125229013	0.3885287643848991	-0.4380066293007881	0.00442118660112694	0.42037034846369215	-0.4631948934156852	0.053961258046437005	0.4642218032410659	-0.5028679520016018	0.131135966844282	0.534170617268386	-0.4130531345648164	0.09819149849900348	0.3439571895957635	-0.40326471235258265	0.10817534023790468	0.4028634761959039	-0.3566941072017938	0.031070218559216035	0.47791553772713197	-0.4698518003862454	0.10659225042719364	0.3700454026251911	-0.5470527930809526	0.038101781667749496	0.3620978331639681
301	10.033333333333333	-0.0741116972217361	-0.5069878468570224	0.039629198702561874	-0.04691489979866368	-0.4633758494647826	-0.060450681787042757	0.3926100522027761	-0.6187220639732357	-0.1560573460492493	0.6678461895047892	-0.9103470118471132	-0.12648098538012537	0.8445859746404829	-0.9114996531645281	-0.14470989707466286	0.7977474113986185	-0.8829505999252796	-0.16556477124045668	0.6980810054839143	-0.9129103758253516	-0.05496237930110315	0.05997009843265099	-0.455774178608474	0.14578563377924136	0.408516601677234	-0.6587881945307543	0.02016223074479751	0.7024565454897527	-0.9538674091325208	-0.05275601174467967	0.8728326601478901	-0.9319059809245317	-0.15634023994704177	0.8759327596418929	-0.9134714631838032	-0.09664607366054359	0.7125631592999627	-0.9506277737832703	-0.023539520327804347	-0.11186848589612322	-0.46028175157162693	0.06340460268379583	-0.1668875548000679	-0.38699161129284776	0.1118255551342657	-0.23383792125947572	-0.2916715829396015	0.17102645920247558	-0.3045408156308615	-0.19839025918512848	0.24129910269382848	-0.37156992276434087	-0.10043630880011141	0.3213245372296776	-0.1297875659487831	-0.2784558852092285	0.25262970122254846	-0.3572277003259267	-0.3151568696612864	0.07617156119027318	-0.371096192651646	-0.12308911034480152	0.28448615987718273	-0.5500894509374628	-0.10462928110476173	0.19097979153179057	-0.5740012528909385	-0.1327700493673409	-0.08979272902698483	-0.4304399281387062	0.036528563254943934	-0.23864596428237939	-0.34019546700181574	-0.1253098501400441	0.30699533894904657	-0.20079530300241882	-0.1177793095482008	0.43594968849707727	0.004996831852598184	-0.23535979131560214	0.1012036694237299	-0.08337713405798593	-0.19596735317963235	-0.2195623980964323	-0.4221844305888214	-0.025668018867102807	0.38819496627564654	-0.4404873687560995	0.0109076881587388	0.41937469042208914	-0.46597144139101065	0.06116036283742633	0.4623430455142602	-0.5060881061720675	0.14047174134419885	0.5311032856066928	-0.4161208345642032	0.10888189407609106	0.3431267949947556	-0.40707699549380083	0.11880121214278178	0.40188769282431097	-0.3613074772674928	0.039485438703514994	0.47769161816234956	-0.4721288681590592	0.11637717393730353	0.36817258901094024	-0.5485865296787663	0.045025017512337465	0.35913140639948854
302	10.066666666666666	-0.07189030902600647	-0.49920763206340957	0.04691430186916916	-0.04114281862694765	-0.447931678826025	-0.05239572229572677	0.39377988246205703	-0.6167472255648853	-0.15528399888084166	0.6712644284295424	-0.9053800286087724	-0.12669991502269698	0.8468215639907815	-0.9073724815857463	-0.14681931287727912	0.8007531047694268	-0.875442971942489	-0.16705286471667147	0.7006981533760875	-0.90846089860422	-0.05561030047280006	0.05986725650461846	-0.4489680694998338	0.15180919124579365	0.4082813302184401	-0.6589748778640151	0.02331944475786079	0.7041159633793731	-0.9515334483232273	-0.05239168909334145	0.8743528046102853	-0.9304473961136992	-0.15714650955406054	0.8772558743138942	-0.9119563983495315	-0.09758916982633106	0.7136469634022669	-0.9478175124616446	-0.023748651493380117	-0.10985436015671965	-0.45253064816333133	0.06961614412181386	-0.16567555557778063	-0.37984185204645204	0.116841245677756	-0.23345140952546722	-0.28558922968121875	0.17450181681694382	-0.30512687345516576	-0.19390324785342727	0.24278299111391094	-0.3727901441255306	-0.0955940805526408	0.3209532355156554	-0.13113009194870437	-0.2731167434834719	0.25661972149616913	-0.3551113095936234	-0.3100248349906787	0.07881818957451622	-0.3716570103180394	-0.11967944459945341	0.28397634550473494	-0.5499993195307958	-0.103936164420976	0.18928633610085333	-0.5750004939960855	-0.13354730283651753	-0.08928918659587826	-0.431651187701433	0.035775694326172065	-0.2391273321176864	-0.3412040306713257	-0.12100807275397349	0.3071795815409367	-0.20345115301277306	-0.11232505317746397	0.43819859676213974	0.000766338420917858	-0.22863211333714029	0.1053670327631066	-0.08220839569065529	-0.1953276952547953	-0.22173634039835524	-0.42417342659410456	-0.019430006737094108	0.3866354954183111	-0.4426545371466044	0.017273150848552368	0.41755658909486276	-0.4685893993477842	0.06867720298086204	0.46031014706292495	-0.5091137576075054	0.14938552819095036	0.528445875429801	-0.4193937849144581	0.11653088895287085	0.3418340935781017	-0.411043075001123	0.12630669374301776	0.40014819251205774	-0.3654027343213646	0.04601385028439827	0.47698289001056315	-0.4747531375095687	0.12324364771749345	0.3660176038020624	-0.5510736826900531	0.05103638570340509	0.3562446108313277
303	10.1	-0.07094430855436581	-0.49276618113815446	0.056311806729945214	-0.03714606915297551	-0.43435963506855446	-0.046680106161102346	0.3918572463420059	-0.6134820317739846	-0.1551372440192373	0.6737692004828669	-0.904113921320153	-0.12838602386352785	0.8488389161546994	-0.9104520139538679	-0.1501175629363167	0.8041711606265637	-0.879019693377799	-0.17002189241623927	0.7033530514313767	-0.9055783029298466	-0.05788001797758868	0.05944157221945978	-0.44485068199341316	0.15720828511639634	0.4082721081349701	-0.6559734247870344	0.027331242913647465	0.7062244995117405	-0.9499224428447204	-0.053231248832691536	0.8766174911411032	-0.9296000006859639	-0.15876172608032058	0.8799903853340754	-0.9123760191539363	-0.09958523440161474	0.7155799094808319	-0.948199567394858	-0.025621230653124084	-0.10916757080581224	-0.446393492270766	0.07819546247059159	-0.16575923527829073	-0.3746594869435639	0.12377103375235707	-0.23377947730046586	-0.2813180025949867	0.17967179818445336	-0.30649469070935687	-0.18863717445081393	0.24580233445974353	-0.3747642904988162	-0.08971857281071943	0.3212473406932329	-0.13358728911119244	-0.2684499437052901	0.2603875669395956	-0.3544930161404654	-0.30481187466376486	0.085469738889282	-0.3733354796435879	-0.11526761102231009	0.2842352325144656	-0.5512319014975415	-0.10144691108917717	0.18868523290763756	-0.5763328269715489	-0.13247971943124562	-0.0903879054303967	-0.4319068576852094	0.03774863074834196	-0.23853093087367772	-0.3429573438671853	-0.11545083957235558	0.30740961767181735	-0.2068233032370903	-0.10448536903160655	0.4407009919138149	-0.00410491361772226	-0.22343461152121447	0.11054508818121948	-0.08249216952768791	-0.1943734203333916	-0.22317337433201848	-0.4265284519046386	-0.011787020573767605	0.3853391057924223	-0.4453645645420034	0.02459207448727084	0.41580859738599096	-0.4711627324693583	0.07524509124645695	0.45798291362178845	-0.5118459213093717	0.15457303664186256	0.5250968764114774	-0.4213777800710676	0.12364432619939832	0.33963945399481216	-0.4144417743596446	0.1342053931569337	0.39796093350592066	-0.36981041084008137	0.05375266905539118	0.475643521591688	-0.4757863671063115	0.1304668259042241	0.3632578819045328	-0.5529167466821721	0.054345519759360694	0.3524365007923965
